<svg id="visual" viewBox="0 0 2560 1080" width="2560" height="1080" xmlns="http://www.w3.org/2000/svg" xmlns:xlink="http://www.w3.org/1999/xlink" version="1.1"><g stroke-width="1" stroke-linejoin="bevel"><path d="M1317 576L1378 594L1369 476Z" fill="#154e02" stroke="#154e02"></path><path d="M1369 476L1253 457L1317 576Z" fill="#1f6f06" stroke="#1f6f06"></path><path d="M1378 594L1513 468L1369 476Z" fill="#1a5e04" stroke="#1a5e04"></path><path d="M1369 476L1242 323L1253 457Z" fill="#27880c" stroke="#27880c"></path><path d="M1317 576L1378 707L1378 594Z" fill="#227708" stroke="#227708"></path><path d="M1378 594L1532 578L1513 468Z" fill="#27880c" stroke="#27880c"></path><path d="M1309 735L1378 707L1317 576Z" fill="#29910e" stroke="#29910e"></path><path d="M1552 681L1532 578L1378 594Z" fill="#1f6f06" stroke="#1f6f06"></path><path d="M1513 468L1425 353L1369 476Z" fill="#29910e" stroke="#29910e"></path><path d="M1143 632L1309 735L1317 576Z" fill="#247f0a" stroke="#247f0a"></path><path d="M1666 453L1507 352L1513 468Z" fill="#2b9911" stroke="#2b9911"></path><path d="M1513 468L1507 352L1425 353Z" fill="#27880c" stroke="#27880c"></path><path d="M1242 323L1140 449L1253 457Z" fill="#154e02" stroke="#154e02"></path><path d="M1253 457L1143 632L1317 576Z" fill="#247f0a" stroke="#247f0a"></path><path d="M1506 808L1552 681L1378 707Z" fill="#247f0a" stroke="#247f0a"></path><path d="M1378 707L1552 681L1378 594Z" fill="#2da213" stroke="#2da213"></path><path d="M1532 578L1666 453L1513 468Z" fill="#247f0a" stroke="#247f0a"></path><path d="M1140 449L1143 632L1253 457Z" fill="#154e02" stroke="#154e02"></path><path d="M1241 241L1242 323L1413 221Z" fill="#27880c" stroke="#27880c"></path><path d="M1425 353L1242 323L1369 476Z" fill="#227708" stroke="#227708"></path><path d="M1143 632L1145 693L1309 735Z" fill="#227708" stroke="#227708"></path><path d="M1272 875L1412 824L1309 735Z" fill="#2da213" stroke="#2da213"></path><path d="M1309 735L1412 824L1378 707Z" fill="#1a5e04" stroke="#1a5e04"></path><path d="M1242 323L1127 354L1140 449Z" fill="#154e02" stroke="#154e02"></path><path d="M1140 449L990 573L1143 632Z" fill="#1d6605" stroke="#1d6605"></path><path d="M1143 632L1015 750L1145 693Z" fill="#1f6f06" stroke="#1f6f06"></path><path d="M1412 824L1506 808L1378 707Z" fill="#2da213" stroke="#2da213"></path><path d="M1672 609L1532 578L1552 681Z" fill="#27880c" stroke="#27880c"></path><path d="M1672 609L1666 453L1532 578Z" fill="#29910e" stroke="#29910e"></path><path d="M1506 808L1640 689L1552 681Z" fill="#1a5e04" stroke="#1a5e04"></path><path d="M1640 689L1672 609L1552 681Z" fill="#2b9911" stroke="#2b9911"></path><path d="M1413 221L1242 323L1425 353Z" fill="#154e02" stroke="#154e02"></path><path d="M1242 323L1118 230L1127 354Z" fill="#29910e" stroke="#29910e"></path><path d="M1573 233L1413 221L1507 352Z" fill="#2da213" stroke="#2da213"></path><path d="M1507 352L1413 221L1425 353Z" fill="#2b9911" stroke="#2b9911"></path><path d="M1145 693L1189 820L1309 735Z" fill="#227708" stroke="#227708"></path><path d="M1189 820L1272 875L1309 735Z" fill="#227708" stroke="#227708"></path><path d="M1412 824L1556 959L1506 808Z" fill="#247f0a" stroke="#247f0a"></path><path d="M1692 347L1573 233L1507 352Z" fill="#27880c" stroke="#27880c"></path><path d="M988 440L990 573L1140 449Z" fill="#2b9911" stroke="#2b9911"></path><path d="M1145 693L1036 823L1189 820Z" fill="#185603" stroke="#185603"></path><path d="M1771 398L1692 347L1666 453Z" fill="#1d6605" stroke="#1d6605"></path><path d="M1666 453L1692 347L1507 352Z" fill="#27880c" stroke="#27880c"></path><path d="M1118 230L1027 348L1127 354Z" fill="#227708" stroke="#227708"></path><path d="M1127 354L1027 348L1140 449Z" fill="#27880c" stroke="#27880c"></path><path d="M1027 348L988 440L1140 449Z" fill="#154e02" stroke="#154e02"></path><path d="M1167 99L1118 230L1241 241Z" fill="#27880c" stroke="#27880c"></path><path d="M1241 241L1118 230L1242 323Z" fill="#247f0a" stroke="#247f0a"></path><path d="M1185 924L1309 924L1272 875Z" fill="#27880c" stroke="#27880c"></path><path d="M1272 875L1309 924L1412 824Z" fill="#27880c" stroke="#27880c"></path><path d="M1381 125L1271 143L1413 221Z" fill="#247f0a" stroke="#247f0a"></path><path d="M1413 221L1271 143L1241 241Z" fill="#1f6f06" stroke="#1f6f06"></path><path d="M990 573L1015 750L1143 632Z" fill="#1d6605" stroke="#1d6605"></path><path d="M1189 820L1185 924L1272 875Z" fill="#1d6605" stroke="#1d6605"></path><path d="M1527 108L1381 125L1413 221Z" fill="#27880c" stroke="#27880c"></path><path d="M1814 576L1778 503L1672 609Z" fill="#247f0a" stroke="#247f0a"></path><path d="M1672 609L1778 503L1666 453Z" fill="#2b9911" stroke="#2b9911"></path><path d="M1692 347L1687 260L1573 233Z" fill="#2b9911" stroke="#2b9911"></path><path d="M1573 233L1527 108L1413 221Z" fill="#27880c" stroke="#27880c"></path><path d="M1787 222L1687 260L1692 347Z" fill="#27880c" stroke="#27880c"></path><path d="M1036 823L1185 924L1189 820Z" fill="#185603" stroke="#185603"></path><path d="M1556 959L1648 856L1506 808Z" fill="#227708" stroke="#227708"></path><path d="M1506 808L1648 856L1640 689Z" fill="#1f6f06" stroke="#1f6f06"></path><path d="M1806 740L1814 576L1672 609Z" fill="#1d6605" stroke="#1d6605"></path><path d="M1778 503L1771 398L1666 453Z" fill="#1d6605" stroke="#1d6605"></path><path d="M1015 750L1036 823L1145 693Z" fill="#1d6605" stroke="#1d6605"></path><path d="M1806 740L1672 609L1640 689Z" fill="#27880c" stroke="#27880c"></path><path d="M1778 503L1924 490L1771 398Z" fill="#27880c" stroke="#27880c"></path><path d="M1384 1080L1390 989L1295 1080Z" fill="#1f6f06" stroke="#1f6f06"></path><path d="M1309 924L1390 989L1412 824Z" fill="#247f0a" stroke="#247f0a"></path><path d="M1628 135L1527 108L1573 233Z" fill="#154e02" stroke="#154e02"></path><path d="M1390 989L1556 959L1412 824Z" fill="#2da213" stroke="#2da213"></path><path d="M988 205L935 330L1027 348Z" fill="#1f6f06" stroke="#1f6f06"></path><path d="M1027 348L935 330L988 440Z" fill="#227708" stroke="#227708"></path><path d="M859 514L883 611L990 573Z" fill="#27880c" stroke="#27880c"></path><path d="M990 573L883 611L1015 750Z" fill="#29910e" stroke="#29910e"></path><path d="M988 205L1027 348L1118 230Z" fill="#1f6f06" stroke="#1f6f06"></path><path d="M1318 0L1167 99L1271 143Z" fill="#185603" stroke="#185603"></path><path d="M1271 143L1167 99L1241 241Z" fill="#2b9911" stroke="#2b9911"></path><path d="M1318 0L1271 143L1381 125Z" fill="#2da213" stroke="#2da213"></path><path d="M1787 222L1628 135L1687 260Z" fill="#27880c" stroke="#27880c"></path><path d="M1687 260L1628 135L1573 233Z" fill="#1a5e04" stroke="#1a5e04"></path><path d="M859 514L990 573L988 440Z" fill="#1d6605" stroke="#1d6605"></path><path d="M1015 750L911 806L1036 823Z" fill="#154e02" stroke="#154e02"></path><path d="M1806 834L1806 740L1648 856Z" fill="#1d6605" stroke="#1d6605"></path><path d="M1648 856L1806 740L1640 689Z" fill="#2da213" stroke="#2da213"></path><path d="M1041 143L988 205L1118 230Z" fill="#185603" stroke="#185603"></path><path d="M1556 959L1680 923L1648 856Z" fill="#2b9911" stroke="#2b9911"></path><path d="M935 330L859 514L988 440Z" fill="#27880c" stroke="#27880c"></path><path d="M1167 99L1041 143L1118 230Z" fill="#27880c" stroke="#27880c"></path><path d="M768 714L866 706L883 611Z" fill="#1a5e04" stroke="#1a5e04"></path><path d="M883 611L866 706L1015 750Z" fill="#1a5e04" stroke="#1a5e04"></path><path d="M866 706L911 806L1015 750Z" fill="#1a5e04" stroke="#1a5e04"></path><path d="M1036 823L1020 983L1185 924Z" fill="#2da213" stroke="#2da213"></path><path d="M1771 398L1787 222L1692 347Z" fill="#1a5e04" stroke="#1a5e04"></path><path d="M1948 356L1787 222L1771 398Z" fill="#29910e" stroke="#29910e"></path><path d="M1680 923L1806 834L1648 856Z" fill="#154e02" stroke="#154e02"></path><path d="M1806 740L1892 629L1814 576Z" fill="#2b9911" stroke="#2b9911"></path><path d="M1419 0L1381 125L1527 108Z" fill="#2da213" stroke="#2da213"></path><path d="M1419 0L1318 0L1381 125Z" fill="#227708" stroke="#227708"></path><path d="M1167 99L1048 0L1041 143Z" fill="#247f0a" stroke="#247f0a"></path><path d="M1889 745L1892 629L1806 740Z" fill="#1f6f06" stroke="#1f6f06"></path><path d="M1814 576L1924 490L1778 503Z" fill="#29910e" stroke="#29910e"></path><path d="M1539 0L1527 108L1627 0Z" fill="#1d6605" stroke="#1d6605"></path><path d="M1539 0L1419 0L1527 108Z" fill="#227708" stroke="#227708"></path><path d="M1295 1080L1390 989L1309 924Z" fill="#1d6605" stroke="#1d6605"></path><path d="M1390 989L1558 1080L1556 959Z" fill="#2da213" stroke="#2da213"></path><path d="M1556 959L1702 1080L1680 923Z" fill="#27880c" stroke="#27880c"></path><path d="M1295 1080L1309 924L1185 924Z" fill="#1f6f06" stroke="#1f6f06"></path><path d="M1153 1080L1295 1080L1185 924Z" fill="#185603" stroke="#185603"></path><path d="M988 205L886 237L935 330Z" fill="#1a5e04" stroke="#1a5e04"></path><path d="M935 330L775 375L859 514Z" fill="#1d6605" stroke="#1d6605"></path><path d="M889 119L886 237L988 205Z" fill="#1d6605" stroke="#1d6605"></path><path d="M915 986L1020 983L1036 823Z" fill="#2b9911" stroke="#2b9911"></path><path d="M1892 629L1924 490L1814 576Z" fill="#227708" stroke="#227708"></path><path d="M1627 0L1527 108L1628 135Z" fill="#2da213" stroke="#2da213"></path><path d="M1806 834L1889 745L1806 740Z" fill="#154e02" stroke="#154e02"></path><path d="M1892 629L2032 627L1924 490Z" fill="#247f0a" stroke="#247f0a"></path><path d="M1384 1080L1558 1080L1390 989Z" fill="#227708" stroke="#227708"></path><path d="M1680 923L1776 956L1806 834Z" fill="#227708" stroke="#227708"></path><path d="M1318 0L1135 0L1167 99Z" fill="#2da213" stroke="#2da213"></path><path d="M1041 143L889 119L988 205Z" fill="#154e02" stroke="#154e02"></path><path d="M1020 983L1153 1080L1185 924Z" fill="#185603" stroke="#185603"></path><path d="M1702 1080L1776 956L1680 923Z" fill="#2da213" stroke="#2da213"></path><path d="M1806 834L1916 873L1889 745Z" fill="#247f0a" stroke="#247f0a"></path><path d="M1754 0L1627 0L1628 135Z" fill="#29910e" stroke="#29910e"></path><path d="M886 237L775 375L935 330Z" fill="#27880c" stroke="#27880c"></path><path d="M859 514L752 572L883 611Z" fill="#2da213" stroke="#2da213"></path><path d="M732 495L752 572L859 514Z" fill="#2b9911" stroke="#2b9911"></path><path d="M866 706L768 714L911 806Z" fill="#1f6f06" stroke="#1f6f06"></path><path d="M911 806L915 986L1036 823Z" fill="#1a5e04" stroke="#1a5e04"></path><path d="M2045 442L1948 356L1924 490Z" fill="#1d6605" stroke="#1d6605"></path><path d="M1924 490L1948 356L1771 398Z" fill="#185603" stroke="#185603"></path><path d="M1787 222L1791 93L1628 135Z" fill="#1f6f06" stroke="#1f6f06"></path><path d="M1910 142L1791 93L1787 222Z" fill="#1a5e04" stroke="#1a5e04"></path><path d="M752 572L768 714L883 611Z" fill="#247f0a" stroke="#247f0a"></path><path d="M1135 0L1048 0L1167 99Z" fill="#1f6f06" stroke="#1f6f06"></path><path d="M886 237L799 200L775 375Z" fill="#227708" stroke="#227708"></path><path d="M1048 0L889 119L1041 143Z" fill="#29910e" stroke="#29910e"></path><path d="M775 375L732 495L859 514Z" fill="#27880c" stroke="#27880c"></path><path d="M626 816L741 855L768 714Z" fill="#1d6605" stroke="#1d6605"></path><path d="M797 971L915 986L911 806Z" fill="#185603" stroke="#185603"></path><path d="M1020 983L1030 1080L1153 1080Z" fill="#185603" stroke="#185603"></path><path d="M915 986L1030 1080L1020 983Z" fill="#2da213" stroke="#2da213"></path><path d="M1558 1080L1702 1080L1556 959Z" fill="#2b9911" stroke="#2b9911"></path><path d="M1776 956L1916 873L1806 834Z" fill="#2b9911" stroke="#2b9911"></path><path d="M2052 702L2032 627L1892 629Z" fill="#1a5e04" stroke="#1a5e04"></path><path d="M1948 990L1916 873L1776 956Z" fill="#1f6f06" stroke="#1f6f06"></path><path d="M889 119L799 200L886 237Z" fill="#227708" stroke="#227708"></path><path d="M638 490L657 582L732 495Z" fill="#1d6605" stroke="#1d6605"></path><path d="M1880 0L1754 0L1791 93Z" fill="#154e02" stroke="#154e02"></path><path d="M1791 93L1754 0L1628 135Z" fill="#1d6605" stroke="#1d6605"></path><path d="M1948 356L1946 214L1787 222Z" fill="#154e02" stroke="#154e02"></path><path d="M1702 1080L1752 1080L1776 956Z" fill="#1f6f06" stroke="#1f6f06"></path><path d="M1946 214L1910 142L1787 222Z" fill="#154e02" stroke="#154e02"></path><path d="M2052 702L1892 629L1889 745Z" fill="#2da213" stroke="#2da213"></path><path d="M1948 356L2055 339L1946 214Z" fill="#29910e" stroke="#29910e"></path><path d="M2032 627L2045 442L1924 490Z" fill="#1a5e04" stroke="#1a5e04"></path><path d="M768 714L741 855L911 806Z" fill="#1f6f06" stroke="#1f6f06"></path><path d="M915 986L905 1080L1030 1080Z" fill="#29910e" stroke="#29910e"></path><path d="M657 582L768 714L752 572Z" fill="#1a5e04" stroke="#1a5e04"></path><path d="M676 342L732 495L775 375Z" fill="#1a5e04" stroke="#1a5e04"></path><path d="M732 495L657 582L752 572Z" fill="#227708" stroke="#227708"></path><path d="M2037 842L1889 745L1916 873Z" fill="#29910e" stroke="#29910e"></path><path d="M2037 842L2052 702L1889 745Z" fill="#29910e" stroke="#29910e"></path><path d="M2032 627L2194 512L2045 442Z" fill="#247f0a" stroke="#247f0a"></path><path d="M797 971L905 1080L915 986Z" fill="#29910e" stroke="#29910e"></path><path d="M679 233L676 342L775 375Z" fill="#2da213" stroke="#2da213"></path><path d="M741 855L797 971L911 806Z" fill="#27880c" stroke="#27880c"></path><path d="M2045 442L2055 339L1948 356Z" fill="#154e02" stroke="#154e02"></path><path d="M2073 0L1880 0L1910 142Z" fill="#247f0a" stroke="#247f0a"></path><path d="M2074 266L2055 339L2145 277Z" fill="#27880c" stroke="#27880c"></path><path d="M889 119L772 86L799 200Z" fill="#185603" stroke="#185603"></path><path d="M799 200L679 233L775 375Z" fill="#27880c" stroke="#27880c"></path><path d="M1048 0L879 0L889 119Z" fill="#247f0a" stroke="#247f0a"></path><path d="M676 342L638 490L732 495Z" fill="#1f6f06" stroke="#1f6f06"></path><path d="M2013 981L2037 842L1916 873Z" fill="#1a5e04" stroke="#1a5e04"></path><path d="M1922 1080L1948 990L1776 956Z" fill="#1d6605" stroke="#1d6605"></path><path d="M879 0L772 86L889 119Z" fill="#27880c" stroke="#27880c"></path><path d="M528 579L636 703L657 582Z" fill="#1f6f06" stroke="#1f6f06"></path><path d="M657 582L636 703L768 714Z" fill="#1f6f06" stroke="#1f6f06"></path><path d="M741 855L662 956L797 971Z" fill="#2b9911" stroke="#2b9911"></path><path d="M2078 159L1910 142L1946 214Z" fill="#29910e" stroke="#29910e"></path><path d="M1910 142L1880 0L1791 93Z" fill="#247f0a" stroke="#247f0a"></path><path d="M669 146L679 233L799 200Z" fill="#29910e" stroke="#29910e"></path><path d="M500 490L528 579L638 490Z" fill="#1a5e04" stroke="#1a5e04"></path><path d="M2145 277L2055 339L2186 342Z" fill="#27880c" stroke="#27880c"></path><path d="M2055 339L2074 266L1946 214Z" fill="#1f6f06" stroke="#1f6f06"></path><path d="M1752 1080L1922 1080L1776 956Z" fill="#27880c" stroke="#27880c"></path><path d="M1948 990L2013 981L1916 873Z" fill="#29910e" stroke="#29910e"></path><path d="M513 809L626 816L636 703Z" fill="#227708" stroke="#227708"></path><path d="M636 703L626 816L768 714Z" fill="#1f6f06" stroke="#1f6f06"></path><path d="M797 971L778 1080L905 1080Z" fill="#227708" stroke="#227708"></path><path d="M2017 1080L2013 981L1948 990Z" fill="#185603" stroke="#185603"></path><path d="M644 0L669 146L772 86Z" fill="#185603" stroke="#185603"></path><path d="M772 86L669 146L799 200Z" fill="#247f0a" stroke="#247f0a"></path><path d="M500 490L638 490L491 366Z" fill="#1a5e04" stroke="#1a5e04"></path><path d="M662 956L778 1080L797 971Z" fill="#1f6f06" stroke="#1f6f06"></path><path d="M2074 266L2078 159L1946 214Z" fill="#2da213" stroke="#2da213"></path><path d="M626 816L662 956L741 855Z" fill="#1a5e04" stroke="#1a5e04"></path><path d="M879 0L743 0L772 86Z" fill="#1d6605" stroke="#1d6605"></path><path d="M2186 342L2055 339L2045 442Z" fill="#1a5e04" stroke="#1a5e04"></path><path d="M2074 266L2145 277L2078 159Z" fill="#247f0a" stroke="#247f0a"></path><path d="M2194 512L2032 627L2202 638Z" fill="#2b9911" stroke="#2b9911"></path><path d="M2032 627L2052 702L2202 638Z" fill="#247f0a" stroke="#247f0a"></path><path d="M2202 638L2052 702L2185 737Z" fill="#247f0a" stroke="#247f0a"></path><path d="M638 490L676 342L491 366Z" fill="#27880c" stroke="#27880c"></path><path d="M638 490L528 579L657 582Z" fill="#2da213" stroke="#2da213"></path><path d="M626 816L537 928L662 956Z" fill="#185603" stroke="#185603"></path><path d="M2185 737L2052 702L2175 818Z" fill="#2b9911" stroke="#2b9911"></path><path d="M2194 512L2186 342L2045 442Z" fill="#1d6605" stroke="#1d6605"></path><path d="M2157 0L2073 0L2078 159Z" fill="#247f0a" stroke="#247f0a"></path><path d="M2266 396L2186 342L2194 512Z" fill="#2da213" stroke="#2da213"></path><path d="M2175 818L2052 702L2037 842Z" fill="#29910e" stroke="#29910e"></path><path d="M1922 1080L2017 1080L1948 990Z" fill="#29910e" stroke="#29910e"></path><path d="M2180 989L2175 818L2037 842Z" fill="#27880c" stroke="#27880c"></path><path d="M2180 989L2037 842L2013 981Z" fill="#185603" stroke="#185603"></path><path d="M2317 718L2268 591L2202 638Z" fill="#1a5e04" stroke="#1a5e04"></path><path d="M491 366L676 342L483 265Z" fill="#2da213" stroke="#2da213"></path><path d="M483 265L676 342L679 233Z" fill="#29910e" stroke="#29910e"></path><path d="M483 265L679 233L509 127Z" fill="#29910e" stroke="#29910e"></path><path d="M2078 159L2073 0L1910 142Z" fill="#1d6605" stroke="#1d6605"></path><path d="M2213 119L2078 159L2145 277Z" fill="#29910e" stroke="#29910e"></path><path d="M416 568L484 690L528 579Z" fill="#2b9911" stroke="#2b9911"></path><path d="M528 579L484 690L636 703Z" fill="#1a5e04" stroke="#1a5e04"></path><path d="M416 568L528 579L500 490Z" fill="#227708" stroke="#227708"></path><path d="M484 690L513 809L636 703Z" fill="#247f0a" stroke="#247f0a"></path><path d="M662 956L655 1080L778 1080Z" fill="#29910e" stroke="#29910e"></path><path d="M537 928L655 1080L662 956Z" fill="#29910e" stroke="#29910e"></path><path d="M743 0L644 0L772 86Z" fill="#227708" stroke="#227708"></path><path d="M2317 718L2202 638L2185 737Z" fill="#1d6605" stroke="#1d6605"></path><path d="M2202 638L2268 591L2194 512Z" fill="#2b9911" stroke="#2b9911"></path><path d="M513 809L537 928L626 816Z" fill="#247f0a" stroke="#247f0a"></path><path d="M372 845L537 928L513 809Z" fill="#227708" stroke="#227708"></path><path d="M2334 512L2266 396L2194 512Z" fill="#247f0a" stroke="#247f0a"></path><path d="M2277 111L2213 119L2326 203Z" fill="#227708" stroke="#227708"></path><path d="M509 127L679 233L669 146Z" fill="#1d6605" stroke="#1d6605"></path><path d="M361 444L416 568L500 490Z" fill="#227708" stroke="#227708"></path><path d="M2017 1080L2180 989L2013 981Z" fill="#1f6f06" stroke="#1f6f06"></path><path d="M2283 870L2317 718L2185 737Z" fill="#29910e" stroke="#29910e"></path><path d="M644 0L509 127L669 146Z" fill="#2b9911" stroke="#2b9911"></path><path d="M361 444L500 490L491 366Z" fill="#154e02" stroke="#154e02"></path><path d="M484 690L372 845L513 809Z" fill="#27880c" stroke="#27880c"></path><path d="M384 342L491 366L483 265Z" fill="#27880c" stroke="#27880c"></path><path d="M2213 119L2145 277L2326 203Z" fill="#27880c" stroke="#27880c"></path><path d="M2213 119L2157 0L2078 159Z" fill="#1a5e04" stroke="#1a5e04"></path><path d="M2283 870L2185 737L2175 818Z" fill="#247f0a" stroke="#247f0a"></path><path d="M2268 591L2334 512L2194 512Z" fill="#2da213" stroke="#2da213"></path><path d="M2404 561L2334 512L2268 591Z" fill="#185603" stroke="#185603"></path><path d="M2326 203L2145 277L2186 342Z" fill="#185603" stroke="#185603"></path><path d="M2180 989L2283 870L2175 818Z" fill="#1f6f06" stroke="#1f6f06"></path><path d="M644 0L533 0L509 127Z" fill="#2b9911" stroke="#2b9911"></path><path d="M397 205L384 342L483 265Z" fill="#1a5e04" stroke="#1a5e04"></path><path d="M2017 1080L2190 1080L2180 989Z" fill="#27880c" stroke="#27880c"></path><path d="M2180 989L2272 984L2283 870Z" fill="#247f0a" stroke="#247f0a"></path><path d="M423 156L483 265L509 127Z" fill="#29910e" stroke="#29910e"></path><path d="M384 342L361 444L491 366Z" fill="#1f6f06" stroke="#1f6f06"></path><path d="M416 568L354 690L484 690Z" fill="#29910e" stroke="#29910e"></path><path d="M2326 203L2186 342L2266 396Z" fill="#1f6f06" stroke="#1f6f06"></path><path d="M2213 119L2279 0L2157 0Z" fill="#27880c" stroke="#27880c"></path><path d="M393 0L423 156L509 127Z" fill="#1f6f06" stroke="#1f6f06"></path><path d="M384 342L289 341L361 444Z" fill="#2b9911" stroke="#2b9911"></path><path d="M2264 1080L2272 984L2180 989Z" fill="#2b9911" stroke="#2b9911"></path><path d="M2404 736L2404 561L2317 718Z" fill="#227708" stroke="#227708"></path><path d="M239 586L354 690L416 568Z" fill="#29910e" stroke="#29910e"></path><path d="M2465 388L2326 203L2266 396Z" fill="#185603" stroke="#185603"></path><path d="M423 156L397 205L483 265Z" fill="#29910e" stroke="#29910e"></path><path d="M408 972L489 1080L537 928Z" fill="#247f0a" stroke="#247f0a"></path><path d="M537 928L489 1080L655 1080Z" fill="#1d6605" stroke="#1d6605"></path><path d="M354 690L372 845L484 690Z" fill="#1f6f06" stroke="#1f6f06"></path><path d="M2317 718L2404 561L2268 591Z" fill="#227708" stroke="#227708"></path><path d="M2334 512L2465 388L2266 396Z" fill="#1d6605" stroke="#1d6605"></path><path d="M2404 736L2317 718L2416 840Z" fill="#247f0a" stroke="#247f0a"></path><path d="M372 845L408 972L537 928Z" fill="#27880c" stroke="#27880c"></path><path d="M2190 1080L2264 1080L2180 989Z" fill="#1d6605" stroke="#1d6605"></path><path d="M2416 840L2317 718L2283 870Z" fill="#1d6605" stroke="#1d6605"></path><path d="M2416 840L2283 870L2401 954Z" fill="#227708" stroke="#227708"></path><path d="M2417 139L2279 0L2277 111Z" fill="#2b9911" stroke="#2b9911"></path><path d="M2277 111L2279 0L2213 119Z" fill="#1f6f06" stroke="#1f6f06"></path><path d="M2560 583L2426 519L2404 561Z" fill="#1a5e04" stroke="#1a5e04"></path><path d="M2404 561L2426 519L2334 512Z" fill="#185603" stroke="#185603"></path><path d="M2326 203L2417 139L2277 111Z" fill="#29910e" stroke="#29910e"></path><path d="M282 209L384 342L397 205Z" fill="#2b9911" stroke="#2b9911"></path><path d="M282 209L289 341L384 342Z" fill="#227708" stroke="#227708"></path><path d="M361 444L239 586L416 568Z" fill="#1d6605" stroke="#1d6605"></path><path d="M354 690L226 725L372 845Z" fill="#1a5e04" stroke="#1a5e04"></path><path d="M282 209L397 205L423 156Z" fill="#185603" stroke="#185603"></path><path d="M2401 954L2283 870L2272 984Z" fill="#1d6605" stroke="#1d6605"></path><path d="M2404 736L2560 583L2404 561Z" fill="#247f0a" stroke="#247f0a"></path><path d="M533 0L393 0L509 127Z" fill="#2b9911" stroke="#2b9911"></path><path d="M2560 487L2465 388L2426 519Z" fill="#1d6605" stroke="#1d6605"></path><path d="M2426 519L2465 388L2334 512Z" fill="#154e02" stroke="#154e02"></path><path d="M123 347L245 456L289 341Z" fill="#154e02" stroke="#154e02"></path><path d="M289 341L245 456L361 444Z" fill="#154e02" stroke="#154e02"></path><path d="M290 1080L367 1080L408 972Z" fill="#154e02" stroke="#154e02"></path><path d="M2418 1080L2401 954L2272 984Z" fill="#2b9911" stroke="#2b9911"></path><path d="M245 456L239 586L361 444Z" fill="#1d6605" stroke="#1d6605"></path><path d="M2466 249L2417 139L2326 203Z" fill="#29910e" stroke="#29910e"></path><path d="M219 88L282 209L423 156Z" fill="#185603" stroke="#185603"></path><path d="M247 864L408 972L372 845Z" fill="#27880c" stroke="#27880c"></path><path d="M408 972L367 1080L489 1080Z" fill="#29910e" stroke="#29910e"></path><path d="M2465 388L2466 249L2326 203Z" fill="#185603" stroke="#185603"></path><path d="M158 610L226 725L239 586Z" fill="#2da213" stroke="#2da213"></path><path d="M239 586L226 725L354 690Z" fill="#154e02" stroke="#154e02"></path><path d="M226 725L247 864L372 845Z" fill="#29910e" stroke="#29910e"></path><path d="M2264 1080L2418 1080L2272 984Z" fill="#29910e" stroke="#29910e"></path><path d="M2560 822L2560 754L2416 840Z" fill="#247f0a" stroke="#247f0a"></path><path d="M2560 754L2560 583L2404 736Z" fill="#29910e" stroke="#29910e"></path><path d="M393 0L295 0L423 156Z" fill="#227708" stroke="#227708"></path><path d="M102 457L158 610L245 456Z" fill="#1d6605" stroke="#1d6605"></path><path d="M2560 754L2404 736L2416 840Z" fill="#2b9911" stroke="#2b9911"></path><path d="M2465 388L2560 350L2466 249Z" fill="#27880c" stroke="#27880c"></path><path d="M2560 583L2560 487L2426 519Z" fill="#27880c" stroke="#27880c"></path><path d="M221 971L290 1080L408 972Z" fill="#1d6605" stroke="#1d6605"></path><path d="M96 845L221 971L247 864Z" fill="#2b9911" stroke="#2b9911"></path><path d="M247 864L221 971L408 972Z" fill="#27880c" stroke="#27880c"></path><path d="M245 456L158 610L239 586Z" fill="#185603" stroke="#185603"></path><path d="M123 347L289 341L133 244Z" fill="#1d6605" stroke="#1d6605"></path><path d="M2560 487L2560 350L2465 388Z" fill="#27880c" stroke="#27880c"></path><path d="M2466 249L2560 108L2417 139Z" fill="#2da213" stroke="#2da213"></path><path d="M2560 822L2416 840L2560 975Z" fill="#247f0a" stroke="#247f0a"></path><path d="M114 754L247 864L226 725Z" fill="#1a5e04" stroke="#1a5e04"></path><path d="M295 0L219 88L423 156Z" fill="#247f0a" stroke="#247f0a"></path><path d="M2560 350L2560 267L2466 249Z" fill="#247f0a" stroke="#247f0a"></path><path d="M2417 139L2467 0L2279 0Z" fill="#2da213" stroke="#2da213"></path><path d="M2560 108L2467 0L2417 139Z" fill="#227708" stroke="#227708"></path><path d="M2560 975L2416 840L2401 954Z" fill="#27880c" stroke="#27880c"></path><path d="M133 244L289 341L282 209Z" fill="#1d6605" stroke="#1d6605"></path><path d="M123 347L102 457L245 456Z" fill="#1d6605" stroke="#1d6605"></path><path d="M158 610L114 754L226 725Z" fill="#2b9911" stroke="#2b9911"></path><path d="M219 88L133 244L282 209Z" fill="#2da213" stroke="#2da213"></path><path d="M0 378L0 497L102 457Z" fill="#27880c" stroke="#27880c"></path><path d="M0 610L114 754L158 610Z" fill="#1a5e04" stroke="#1a5e04"></path><path d="M2560 267L2560 108L2466 249Z" fill="#227708" stroke="#227708"></path><path d="M2418 1080L2560 975L2401 954Z" fill="#227708" stroke="#227708"></path><path d="M0 817L96 845L114 754Z" fill="#1d6605" stroke="#1d6605"></path><path d="M114 754L96 845L247 864Z" fill="#2b9911" stroke="#2b9911"></path><path d="M221 971L135 1080L290 1080Z" fill="#154e02" stroke="#154e02"></path><path d="M96 845L137 986L221 971Z" fill="#154e02" stroke="#154e02"></path><path d="M2560 108L2560 0L2467 0Z" fill="#185603" stroke="#185603"></path><path d="M2418 1080L2560 1080L2560 975Z" fill="#2da213" stroke="#2da213"></path><path d="M295 0L147 0L219 88Z" fill="#2da213" stroke="#2da213"></path><path d="M219 88L95 81L133 244Z" fill="#247f0a" stroke="#247f0a"></path><path d="M0 378L102 457L123 347Z" fill="#29910e" stroke="#29910e"></path><path d="M0 986L135 1080L137 986Z" fill="#227708" stroke="#227708"></path><path d="M137 986L135 1080L221 971Z" fill="#27880c" stroke="#27880c"></path><path d="M147 0L95 81L219 88Z" fill="#227708" stroke="#227708"></path><path d="M102 457L0 497L158 610Z" fill="#154e02" stroke="#154e02"></path><path d="M0 378L123 347L0 208Z" fill="#247f0a" stroke="#247f0a"></path><path d="M96 845L0 986L137 986Z" fill="#154e02" stroke="#154e02"></path><path d="M0 497L0 610L158 610Z" fill="#2da213" stroke="#2da213"></path><path d="M0 208L123 347L133 244Z" fill="#2b9911" stroke="#2b9911"></path><path d="M0 610L0 738L114 754Z" fill="#1f6f06" stroke="#1f6f06"></path><path d="M0 738L0 817L114 754Z" fill="#1f6f06" stroke="#1f6f06"></path><path d="M0 107L0 208L95 81Z" fill="#2da213" stroke="#2da213"></path><path d="M95 81L0 208L133 244Z" fill="#1a5e04" stroke="#1a5e04"></path><path d="M0 0L0 107L95 81Z" fill="#227708" stroke="#227708"></path><path d="M0 817L0 986L96 845Z" fill="#27880c" stroke="#27880c"></path><path d="M147 0L0 0L95 81Z" fill="#185603" stroke="#185603"></path><path d="M0 986L0 1080L135 1080Z" fill="#2b9911" stroke="#2b9911"></path></g></svg>