<?xml version="1.0" encoding="UTF-8"?><svg id="Layer_1" xmlns="http://www.w3.org/2000/svg" xmlns:xlink="http://www.w3.org/1999/xlink" viewBox="0 0 714.85 1030.03"><defs><style>.cls-1{fill:none;}.cls-2{clip-path:url(#clippath);}.cls-3{fill:#fff;}.cls-4{fill:#745200;}.cls-5{fill:#c90011;}.cls-6{fill:#634600;}.cls-7{fill:#3e006b;}.cls-8{fill:#53008f;}</style><clipPath id="clippath"><circle class="cls-1" cx="362.14" cy="305.19" r="242.33"/></clipPath></defs><polygon class="cls-4" points="454.67 797.72 555.95 992.97 484.51 1030.03 414.97 895.97 309.31 895.97 239.77 1030.03 168.33 992.97 269.61 797.72 269.61 729.57 185.91 862.05 117.87 819.06 269.61 578.89 269.61 493.31 454.67 493.31 454.67 581.94 604.47 819.06 536.43 862.05 454.67 732.63 454.67 797.72"/><g class="cls-2"><rect class="cls-7" y=".34" width="714.85" height="582.98"/><rect class="cls-6" x="87.84" y="62.86" width="588.36" height="46.91"/><rect class="cls-6" x="76.83" y="153.69" width="588.36" height="46.91"/><rect class="cls-6" x="82.34" y="244.53" width="588.36" height="46.91"/><rect class="cls-6" x="71.33" y="331.26" width="588.36" height="46.91"/><rect class="cls-6" x="66.51" y="417.99" width="588.36" height="46.91"/><rect class="cls-6" x="55.5" y="500.62" width="588.36" height="46.91"/><rect class="cls-4" x="-152.37" y="270.73" width="588.36" height="46.91" transform="translate(-152.37 436) rotate(-90)"/><rect class="cls-4" x="-61.53" y="281.74" width="588.36" height="46.91" transform="translate(-72.54 537.84) rotate(-90)"/><rect class="cls-4" x="29.3" y="276.23" width="588.36" height="46.91" transform="translate(23.8 623.17) rotate(-90)"/><rect class="cls-4" x="116.03" y="287.24" width="588.36" height="46.91" transform="translate(99.52 720.91) rotate(-90)"/><rect class="cls-4" x="202.77" y="292.06" width="588.36" height="46.91" transform="translate(181.43 812.46) rotate(-90)"/><rect class="cls-4" x="285.39" y="303.07" width="588.36" height="46.91" transform="translate(253.05 906.1) rotate(-90)"/></g><g><path class="cls-3" d="m144.77,250.33s104.79-82.65,192.35,2.46c0,0-86.09,90.52-192.35-2.46Z"/><circle class="cls-8" cx="240.94" cy="253.31" r="38.97"/><circle cx="240.94" cy="253.31" r="21.18"/></g><g><path class="cls-3" d="m370.68,250.33s104.79-82.65,192.35,2.46c0,0-86.09,90.52-192.35-2.46Z"/><circle class="cls-8" cx="466.85" cy="253.31" r="38.97"/><circle cx="466.85" cy="253.31" r="21.18"/></g><path class="cls-5" d="m139.32,348.26c129.17,189.7,330.35,157.02,395.6,60.16,0,0-215.64,95.84-395.6-60.16Z"/></svg>