<svg width="512" height="512" viewBox="0 0 135.47 135.47" xmlns="http://www.w3.org/2000/svg">
  <path d="M36.575 78.978c0 2.117.562 4.156 1.58 5.929l-28.84 16.751a17.87 17.87 0 0 1-2.37-8.9V42.712a17.9 17.9 0 0 1 2.366-8.895l28.843 16.746a11.912 11.912 0 0 0-1.579 5.932z" fill="#05873f"/>
  <path d="M128.534 42.71v25.025h-29.63v-11.24c0-2.118-.561-4.16-1.582-5.933l28.84-16.746a17.835 17.835 0 0 1 2.37 8.899z" fill="#1d9d4b"/>
  <path d="M128.534 67.735v25.024c0 3.18-.844 6.242-2.37 8.9l-27.26-15.827-1.583-.92a11.888 11.888 0 0 0 1.583-5.933V67.736Z" fill="#05873f"/>
  <path d="M126.164 101.658a17.8 17.8 0 0 1-6.478 6.515l-21.549 12.512L83.318 94.88l9.686-5.624a11.88 11.88 0 0 0 4.317-4.341l28.84 16.746z" fill="#165f31"/>
  <path d="M98.137 120.682 76.59 133.194a17.625 17.625 0 0 1-8.85 2.384V102.09c2.035 0 4.07-.53 5.9-1.592l9.679-5.623 14.819 25.805z" fill="#05873f"/>
  <path d="M98.137 14.788 83.32 40.593l-9.68-5.623a11.733 11.733 0 0 0-5.899-1.588V-.108c3.056 0 6.112.796 8.85 2.384z" fill="#1d9d4b"/>
  <path d="M67.739-.108v33.49c-2.035 0-4.07.525-5.9 1.587L42.475 46.216a11.819 11.819 0 0 0-4.32 4.345L9.311 33.815a17.782 17.782 0 0 1 6.483-6.515L58.89 2.275a17.625 17.625 0 0 1 8.849-2.384zm58.425 33.923L97.324 50.56a11.853 11.853 0 0 0-4.316-4.341l-9.686-5.624L98.141 14.79l21.549 12.511a17.745 17.745 0 0 1 6.478 6.516z" fill="#6db245"/>
  <path d="M67.739 102.092v33.489c-3.056 0-6.111-.796-8.849-2.384L15.794 108.17a17.77 17.77 0 0 1-6.478-6.515l28.84-16.746a11.88 11.88 0 0 0 4.316 4.341l19.365 11.248a11.736 11.736 0 0 0 5.9 1.591z" fill="#165f31"/>
  <path d="M111.386 51.996v31.488c0 5.94-3.146 11.422-8.261 14.387l-27.12 15.751a16.435 16.435 0 0 1-16.522 0l-27.12-15.75c-5.115-2.966-8.261-8.448-8.261-14.388V51.996c0-5.94 3.146-11.423 8.261-14.388l27.12-15.75a16.428 16.428 0 0 1 8.261-2.224c2.85 0 5.7.74 8.262 2.224l13.554 7.875 13.565 7.875a16.637 16.637 0 0 1 8.261 14.388z" fill="#d6b69b"/>
  <path d="M28.074 82.053V53.43c0-5.4 2.86-10.382 7.51-13.078l24.65-14.317a14.939 14.939 0 0 1 15.019 0l24.65 14.317c4.65 2.696 7.51 7.679 7.51 13.078v28.622c0 5.399-2.86 10.382-7.51 13.078l-24.65 14.317a14.933 14.933 0 0 1-7.51 2.02c-2.59 0-5.18-.673-7.509-2.02l-12.32-7.159-12.33-7.158a15.123 15.123 0 0 1-7.51-13.078z" fill="#c13c2d"/>
  <path d="M28.074 82.053V53.43a15.133 15.133 0 0 1 7.51-13.078l12.33-7.158 12.32-7.159a14.94 14.94 0 0 1 7.51-2.026v43.73l-29.58 17.17-8.08 4.69a15.133 15.133 0 0 1-2.015-7.552z" fill="#bf3123"/>
  <path d="M67.745 67.745v-43.73c2.59 0 5.18.674 7.51 2.026l24.65 14.317a15.125 15.125 0 0 1 7.51 13.078v28.621c0 2.695-.715 5.296-2.015 7.552L67.742 67.75z" fill="#af160b"/>
  <path d="M59.523 41.028a4.63 4.63 0 1 1-9.261 0 4.63 4.63 0 0 1 9.26 0zm16.424 0a4.63 4.63 0 1 0 9.261 0 4.63 4.63 0 0 0-9.26 0zM48.71 88.23a4.63 4.63 0 1 1 4.63 8.02 4.63 4.63 0 0 1-4.63-8.02zm-8.212-14.224a4.63 4.63 0 1 0-4.63-8.02 4.63 4.63 0 0 0 4.63 8.02zm54.496-.012a4.63 4.63 0 1 1 4.63-8.02 4.63 4.63 0 0 1-4.63 8.02zm-8.212 14.225a4.63 4.63 0 1 0-4.63 8.02 4.63 4.63 0 0 0 4.63-8.02zM61.705 61.67a4.63 4.63 0 1 1-9.26 0 4.63 4.63 0 0 1 9.26 0zm3.79 14.348a4.63 4.63 0 1 1 4.63 8.02 4.63 4.63 0 0 1-4.63-8.02zm10.53-10.455a4.63 4.63 0 1 1 4.63-8.02 4.63 4.63 0 0 1-4.63 8.02z" fill="#3b180f"/>
</svg>
